<svg xmlns="http://www.w3.org/2000/svg" viewBox="0 0 1024 1024" width="1024" height="1024"><rect width="1024" height="1024" rx="184" fill="#0A0A0B"/><g fill="#F3F1EC" transform="translate(132.3,131.7) scale(0.21163) translate(0.000000,3600.000000) scale(0.100000,-0.100000)"><path d="M14700 27450 l-21 -30 -189 0 -189 0 -21 -30 -21 -30 -129 0 -129 0
-21 -30 c-21 -30 -22 -30 -120 -30 -98 0 -99 0 -120 -30 -20 -28 -25 -30 -90
-30 -65 0 -70 -2 -90 -30 -20 -28 -25 -30 -90 -30 -65 0 -70 -2 -90 -30 -17
-24 -28 -30 -60 -30 -32 0 -43 -6 -60 -30 -20 -28 -25 -30 -90 -30 -65 0 -70
-2 -90 -30 -17 -24 -28 -30 -60 -30 -32 0 -43 -6 -60 -30 -17 -24 -28 -30 -60
-30 -32 0 -43 -6 -60 -30 -17 -24 -28 -30 -60 -30 -32 0 -43 -6 -60 -30 -17
-24 -29 -30 -57 -30 -31 0 -44 -8 -93 -60 -49 -52 -62 -60 -93 -60 -28 0 -40
-6 -57 -30 -17 -24 -29 -30 -57 -30 -31 0 -44 -8 -93 -60 -47 -50 -62 -60 -90
-60 -28 0 -45 -13 -120 -90 -73 -75 -93 -90 -119 -90 -47 0 -901 -854 -901
-901 0 -26 -15 -46 -90 -119 -77 -75 -90 -92 -90 -120 0 -28 -10 -43 -60 -90
-52 -49 -60 -62 -60 -93 0 -28 -6 -40 -30 -57 -24 -17 -30 -29 -30 -57 0 -31
-8 -44 -60 -93 -52 -49 -60 -62 -60 -93 0 -28 -6 -40 -30 -57 -24 -17 -30 -28
-30 -60 0 -32 -6 -43 -30 -60 -24 -17 -30 -28 -30 -60 0 -32 -6 -43 -30 -60
-24 -17 -30 -28 -30 -60 0 -32 -6 -43 -30 -60 -24 -17 -30 -28 -30 -60 0 -32
-6 -43 -30 -60 -24 -17 -30 -29 -30 -57 0 -31 -8 -44 -60 -93 -52 -49 -60 -62
-60 -93 0 -28 -6 -40 -30 -57 -24 -17 -30 -28 -30 -60 0 -32 -6 -43 -30 -60
-24 -17 -30 -28 -30 -60 0 -32 -6 -43 -30 -60 -24 -17 -30 -28 -30 -60 0 -32
-6 -43 -30 -60 -24 -17 -30 -28 -30 -60 0 -32 -6 -43 -30 -60 -24 -17 -30 -28
-30 -60 0 -32 -6 -43 -30 -60 -24 -17 -30 -28 -30 -60 0 -32 -6 -43 -30 -60
-24 -17 -30 -28 -30 -60 0 -32 -6 -43 -30 -60 -24 -17 -30 -28 -30 -60 0 -32
-6 -43 -30 -60 -24 -17 -30 -28 -30 -60 0 -32 -6 -43 -30 -60 -24 -17 -30 -29
-30 -57 0 -31 -8 -44 -60 -93 -52 -49 -60 -62 -60 -93 0 -28 -6 -40 -30 -57
-24 -17 -30 -28 -30 -60 0 -32 -6 -43 -30 -60 -24 -17 -30 -28 -30 -60 0 -32
-6 -43 -30 -60 -24 -17 -30 -28 -30 -60 0 -32 -6 -43 -30 -60 -24 -17 -30 -28
-30 -60 0 -32 -6 -43 -30 -60 -24 -17 -30 -28 -30 -60 0 -32 -6 -43 -30 -60
-24 -17 -30 -28 -30 -60 0 -32 -6 -43 -30 -60 -24 -17 -30 -28 -30 -60 0 -32
-6 -43 -30 -60 -24 -17 -30 -28 -30 -60 0 -32 -6 -43 -30 -60 -24 -17 -30 -29
-30 -57 0 -31 -8 -44 -60 -93 -52 -49 -60 -62 -60 -93 0 -28 -6 -40 -30 -57
-24 -17 -30 -28 -30 -60 0 -32 -6 -43 -30 -60 -24 -17 -30 -28 -30 -60 0 -32
-6 -43 -30 -60 -24 -17 -30 -28 -30 -60 0 -32 -6 -43 -30 -60 -24 -17 -30 -28
-30 -60 0 -32 -6 -43 -30 -60 -24 -17 -30 -28 -30 -60 0 -32 -6 -43 -30 -60
-24 -17 -30 -28 -30 -60 0 -32 -6 -43 -30 -60 -24 -17 -30 -28 -30 -60 0 -32
-6 -43 -30 -60 -24 -17 -30 -28 -30 -60 0 -32 -6 -43 -30 -60 -24 -17 -30 -28
-30 -60 0 -32 -6 -43 -30 -60 -24 -17 -30 -28 -30 -60 0 -32 -6 -43 -30 -60
-24 -17 -30 -29 -30 -57 0 -31 -8 -44 -60 -93 -52 -49 -60 -62 -60 -93 0 -28
-6 -40 -30 -57 -24 -17 -30 -28 -30 -60 0 -32 -6 -43 -30 -60 -24 -17 -30 -28
-30 -60 0 -32 -6 -43 -30 -60 -24 -17 -30 -28 -30 -60 0 -32 -6 -43 -30 -60
-24 -17 -30 -28 -30 -60 0 -32 -6 -43 -30 -60 -24 -17 -30 -28 -30 -60 0 -32
-6 -43 -30 -60 -24 -17 -30 -28 -30 -60 0 -32 -6 -43 -30 -60 -24 -17 -30 -28
-30 -60 0 -32 -6 -43 -30 -60 -24 -17 -30 -28 -30 -60 0 -32 -6 -43 -30 -60
-24 -17 -30 -28 -30 -60 0 -32 -6 -43 -30 -60 -24 -17 -30 -28 -30 -60 0 -32
-6 -43 -30 -60 -24 -17 -30 -28 -30 -60 0 -32 -6 -43 -30 -60 -24 -17 -30 -29
-30 -57 0 -31 -8 -44 -60 -93 -52 -49 -60 -62 -60 -93 0 -28 -6 -40 -30 -57
-24 -17 -30 -28 -30 -60 0 -32 -6 -43 -30 -60 -24 -17 -30 -28 -30 -60 0 -32
-6 -43 -30 -60 -24 -17 -30 -28 -30 -60 0 -32 -6 -43 -30 -60 -24 -17 -30 -28
-30 -60 0 -32 -6 -43 -30 -60 -24 -17 -30 -28 -30 -60 0 -32 -6 -43 -30 -60
-24 -17 -30 -28 -30 -60 0 -32 -6 -43 -30 -60 -24 -17 -30 -28 -30 -60 0 -32
-6 -43 -30 -60 -24 -17 -30 -28 -30 -60 0 -32 -6 -43 -30 -60 -24 -17 -30 -28
-30 -60 0 -32 -6 -43 -30 -60 -24 -17 -30 -28 -30 -60 0 -32 -6 -43 -30 -60
-24 -17 -30 -28 -30 -60 0 -32 -6 -43 -30 -60 -24 -17 -30 -29 -30 -57 0 -31
-8 -44 -60 -93 -52 -49 -60 -62 -60 -93 0 -28 -6 -40 -30 -57 -24 -17 -30 -28
-30 -60 0 -32 -6 -43 -30 -60 -24 -17 -30 -28 -30 -60 0 -32 -6 -43 -30 -60
-24 -17 -30 -28 -30 -60 0 -32 -6 -43 -30 -60 -24 -17 -30 -28 -30 -60 0 -32
-6 -43 -30 -60 -24 -17 -30 -28 -30 -60 0 -32 -6 -43 -30 -60 -24 -17 -30 -28
-30 -60 0 -32 -6 -43 -30 -60 -24 -17 -30 -28 -30 -60 0 -32 -6 -43 -30 -60
-24 -17 -30 -28 -30 -60 0 -32 -6 -43 -30 -60 -24 -17 -30 -28 -30 -60 0 -32
-6 -43 -30 -60 -24 -17 -30 -28 -30 -60 0 -32 -6 -43 -30 -60 -24 -17 -30 -28
-30 -60 0 -32 -6 -43 -30 -60 -24 -17 -30 -29 -30 -57 0 -31 -8 -44 -60 -93
-52 -49 -60 -62 -60 -93 0 -28 -6 -40 -30 -57 -24 -17 -30 -28 -30 -60 0 -32
-6 -43 -30 -60 -24 -17 -30 -28 -30 -60 0 -32 -6 -43 -30 -60 -24 -17 -30 -28
-30 -60 0 -32 -6 -43 -30 -60 -24 -17 -30 -28 -30 -60 0 -32 -6 -43 -30 -60
-24 -17 -30 -28 -30 -60 0 -32 -6 -43 -30 -60 -24 -17 -30 -28 -30 -60 0 -32
-6 -43 -30 -60 -24 -17 -30 -28 -30 -60 0 -32 -6 -43 -30 -60 -24 -17 -30 -28
-30 -60 0 -32 -6 -43 -30 -60 -24 -17 -30 -28 -30 -60 0 -32 -6 -43 -30 -60
-24 -17 -30 -28 -30 -60 0 -32 -6 -43 -30 -60 -24 -17 -30 -28 -30 -60 0 -32
-6 -43 -30 -60 -24 -17 -30 -28 -30 -60 0 -32 -6 -43 -30 -60 -24 -17 -30 -29
-30 -57 0 -31 -8 -44 -60 -93 -52 -49 -60 -62 -60 -93 0 -28 -6 -40 -30 -57
-24 -17 -30 -28 -30 -60 0 -32 -6 -43 -30 -60 -24 -17 -30 -28 -30 -60 0 -32
-6 -43 -30 -60 -24 -17 -30 -28 -30 -60 0 -32 -6 -43 -30 -60 -24 -17 -30 -28
-30 -60 0 -32 -6 -43 -30 -60 -24 -17 -30 -28 -30 -60 0 -32 -6 -43 -30 -60
-24 -17 -30 -28 -30 -60 0 -32 -6 -43 -30 -60 -24 -17 -30 -28 -30 -60 0 -32
-6 -43 -30 -60 -24 -17 -30 -28 -30 -60 0 -32 -6 -43 -30 -60 -24 -17 -30 -28
-30 -60 0 -32 -6 -43 -30 -60 -24 -17 -30 -28 -30 -60 0 -32 -6 -43 -30 -60
-24 -17 -30 -28 -30 -60 0 -32 -6 -43 -30 -60 -24 -17 -30 -28 -30 -60 0 -32
-6 -43 -30 -60 -24 -17 -30 -29 -30 -57 0 -31 -8 -44 -60 -93 -52 -49 -60 -62
-60 -93 0 -28 -6 -40 -30 -57 -24 -17 -30 -28 -30 -60 0 -32 -6 -43 -30 -60
-24 -17 -30 -28 -30 -60 0 -32 -6 -43 -30 -60 -24 -17 -30 -28 -30 -60 0 -32
-6 -43 -30 -60 -24 -17 -30 -28 -30 -60 0 -32 -6 -43 -30 -60 -24 -17 -30 -28
-30 -60 0 -32 -6 -43 -30 -60 -24 -17 -30 -28 -30 -60 0 -32 -6 -43 -30 -60
-24 -17 -30 -28 -30 -60 0 -32 -6 -43 -30 -60 -24 -17 -30 -28 -30 -60 0 -32
-6 -43 -30 -60 -28 -20 -30 -25 -30 -90 0 -65 -2 -70 -30 -90 -28 -20 -30 -25
-30 -90 0 -65 -2 -70 -30 -90 -28 -20 -30 -25 -30 -90 0 -65 -2 -70 -30 -90
l-30 -21 0 -219 0 -219 30 -21 c28 -20 30 -25 30 -87 l0 -66 60 -57 c49 -46
60 -63 60 -89 0 -50 374 -421 424 -421 27 0 39 -7 56 -30 20 -28 25 -30 90
-30 65 0 70 -2 90 -30 l21 -30 129 0 129 0 21 -30 21 -30 1239 0 1239 0 21 30
21 30 129 0 129 0 21 30 c17 24 28 30 60 30 32 0 43 6 60 30 20 28 25 30 87
30 l66 0 57 60 c46 49 63 60 89 60 47 0 301 253 301 301 0 26 14 45 90 119 80
78 90 92 90 123 0 28 6 40 30 57 24 17 30 28 30 60 0 32 6 43 30 60 24 17 30
28 30 60 0 32 6 43 30 60 24 17 30 29 30 57 0 31 8 44 60 93 52 49 60 62 60
93 0 28 6 40 30 57 24 17 30 28 30 60 0 32 6 43 30 60 24 17 30 28 30 60 0 32
6 43 30 60 24 17 30 28 30 60 0 32 6 43 30 60 24 17 30 28 30 60 0 32 6 43 30
60 24 17 30 28 30 60 0 32 6 43 30 60 24 17 30 28 30 60 0 32 6 43 30 60 24
17 30 28 30 60 0 32 6 43 30 60 24 17 30 28 30 60 0 32 6 43 30 60 24 17 30
28 30 60 0 32 6 43 30 60 24 17 30 28 30 60 0 32 6 43 30 60 24 17 30 29 30
57 0 31 8 44 60 93 52 49 60 62 60 93 0 28 6 40 30 57 24 17 30 28 30 60 0 32
6 43 30 60 24 17 30 28 30 60 0 32 6 43 30 60 24 17 30 28 30 60 0 32 6 43 30
60 24 17 30 28 30 60 0 32 6 43 30 60 24 17 30 28 30 60 0 32 6 43 30 60 24
17 30 28 30 60 0 32 6 43 30 60 24 17 30 28 30 60 0 32 6 43 30 60 24 17 30
28 30 60 0 32 6 43 30 60 24 17 30 28 30 60 0 32 6 43 30 60 24 17 30 28 30
60 0 32 6 43 30 60 24 17 30 28 30 60 0 32 6 43 30 60 24 17 30 29 30 57 0 31
8 44 60 93 52 49 60 62 60 93 0 28 6 40 30 57 24 17 30 28 30 60 0 32 6 43 30
60 24 17 30 28 30 60 0 32 6 43 30 60 24 17 30 28 30 60 0 32 6 43 30 60 24
17 30 28 30 60 0 32 6 43 30 60 24 17 30 28 30 60 0 32 6 43 30 60 24 17 30
28 30 60 0 32 6 43 30 60 24 17 30 28 30 60 0 32 6 43 30 60 24 17 30 28 30
60 0 32 6 43 30 60 24 17 30 28 30 60 0 32 6 43 30 60 24 17 30 28 30 60 0 32
6 43 30 60 24 17 30 28 30 60 0 32 6 43 30 60 24 17 30 29 30 57 0 31 8 44 60
93 52 49 60 62 60 93 0 28 6 40 30 57 24 17 30 28 30 60 0 32 6 43 30 60 24
17 30 28 30 60 0 32 6 43 30 60 24 17 30 28 30 60 0 32 6 43 30 60 24 17 30
28 30 60 0 32 6 43 30 60 24 17 30 28 30 60 0 32 6 43 30 60 24 17 30 28 30
60 0 32 6 43 30 60 24 17 30 28 30 60 0 32 6 43 30 60 24 17 30 28 30 60 0 32
6 43 30 60 24 17 30 28 30 60 0 32 6 43 30 60 24 17 30 28 30 60 0 32 6 43 30
60 24 17 30 28 30 60 0 32 6 43 30 60 24 17 30 28 30 60 0 32 6 43 30 60 24
17 30 29 30 57 0 31 8 44 60 93 52 49 60 62 60 93 0 28 6 40 30 57 24 17 30
28 30 60 0 32 6 43 30 60 24 17 30 28 30 60 0 32 6 43 30 60 24 17 30 28 30
60 0 32 6 43 30 60 24 17 30 28 30 60 0 32 6 43 30 60 24 17 30 28 30 60 0 32
6 43 30 60 24 17 30 28 30 60 0 32 6 43 30 60 24 17 30 28 30 60 0 32 6 43 30
60 24 17 30 28 30 60 0 32 6 43 30 60 24 17 30 28 30 60 0 32 6 43 30 60 24
17 30 28 30 60 0 32 6 43 30 60 24 17 30 28 30 60 0 32 6 43 30 60 24 17 30
28 30 60 0 32 6 43 30 60 24 17 30 29 30 57 0 31 8 44 60 93 52 49 60 62 60
93 0 28 6 40 30 57 24 17 30 28 30 60 0 32 6 43 30 60 24 17 30 28 30 60 0 32
6 43 30 60 24 17 30 28 30 60 0 32 6 43 30 60 24 17 30 28 30 60 0 32 6 43 30
60 24 17 30 28 30 60 0 32 6 43 30 60 24 17 30 28 30 60 0 32 6 43 30 60 24
17 30 28 30 60 0 32 6 43 30 60 24 17 30 28 30 60 0 32 6 43 30 60 24 17 30
28 30 60 0 32 6 43 30 60 24 17 30 28 30 60 0 32 6 43 30 60 24 17 30 28 30
60 0 32 6 43 30 60 24 17 30 28 30 60 0 32 6 43 30 60 24 17 30 28 30 60 0 32
6 43 30 60 24 17 30 29 30 57 0 31 8 44 60 93 52 49 60 62 60 93 0 28 6 40 30
57 24 17 30 28 30 60 0 32 6 43 30 60 24 17 30 28 30 60 0 32 6 43 30 60 24
17 30 28 30 60 0 32 6 43 30 60 24 17 30 28 30 60 0 32 6 43 30 60 24 17 30
28 30 60 0 32 6 43 30 60 24 17 30 28 30 60 0 32 6 43 30 60 24 17 30 28 30
60 0 32 6 43 30 60 24 17 30 28 30 60 0 32 6 43 30 60 24 17 30 28 30 60 0 32
6 43 30 60 24 17 30 28 30 60 0 32 6 43 30 60 24 17 30 28 30 60 0 32 6 43 30
60 24 17 30 28 30 60 0 32 6 43 30 60 24 17 30 29 30 57 0 31 8 44 60 93 52
49 60 62 60 93 0 28 6 40 30 57 24 17 30 28 30 60 0 32 6 43 30 60 24 17 30
28 30 60 0 32 6 43 30 60 24 17 30 28 30 60 0 32 6 43 30 60 24 17 30 29 30
57 0 31 12 46 120 153 103 102 120 123 120 150 0 45 75 120 121 120 26 0 42
11 89 60 l57 60 243 0 243 0 57 -60 c46 -49 63 -60 89 -60 47 0 301 -254 301
-301 0 -26 11 -43 60 -89 52 -49 60 -62 60 -93 0 -28 6 -40 30 -57 24 -17 30
-28 30 -60 0 -32 6 -43 30 -60 24 -17 30 -28 30 -60 0 -32 6 -43 30 -60 24
-17 30 -29 30 -57 0 -31 8 -44 60 -93 52 -49 60 -62 60 -93 0 -28 6 -40 30
-57 24 -17 30 -28 30 -60 0 -32 6 -43 30 -60 24 -17 30 -28 30 -60 0 -32 6
-43 30 -60 24 -17 30 -28 30 -60 0 -32 6 -43 30 -60 24 -17 30 -28 30 -60 0
-32 6 -43 30 -60 24 -17 30 -28 30 -60 0 -32 6 -43 30 -60 24 -17 30 -28 30
-60 0 -32 6 -43 30 -60 24 -17 30 -28 30 -60 0 -32 6 -43 30 -60 24 -17 30
-28 30 -60 0 -32 6 -43 30 -60 24 -17 30 -28 30 -60 0 -32 6 -43 30 -60 24
-17 30 -28 30 -60 0 -32 6 -43 30 -60 24 -17 30 -28 30 -60 0 -32 6 -43 30
-60 24 -17 30 -28 30 -60 0 -32 6 -43 30 -60 24 -17 30 -28 30 -60 0 -32 6
-43 30 -60 24 -17 30 -29 30 -57 0 -31 8 -44 60 -93 52 -49 60 -62 60 -93 0
-28 6 -40 30 -57 24 -17 30 -28 30 -60 0 -32 6 -43 30 -60 24 -17 30 -28 30
-60 0 -32 6 -43 30 -60 24 -17 30 -28 30 -60 0 -32 6 -43 30 -60 24 -17 30
-28 30 -60 0 -32 6 -43 30 -60 24 -17 30 -28 30 -60 0 -32 6 -43 30 -60 24
-17 30 -28 30 -60 0 -32 6 -43 30 -60 24 -17 30 -28 30 -60 0 -32 6 -43 30
-60 24 -17 30 -28 30 -60 0 -32 6 -43 30 -60 24 -17 30 -28 30 -60 0 -32 6
-43 30 -60 24 -17 30 -28 30 -60 0 -32 6 -43 30 -60 24 -17 30 -28 30 -60 0
-32 6 -43 30 -60 24 -17 30 -28 30 -60 0 -32 6 -43 30 -60 24 -17 30 -28 30
-60 0 -32 6 -43 30 -60 24 -17 30 -29 30 -57 0 -31 8 -44 60 -93 52 -49 60
-62 60 -93 0 -28 6 -40 30 -57 24 -17 30 -28 30 -60 0 -32 6 -43 30 -60 24
-17 30 -28 30 -60 0 -32 6 -43 30 -60 24 -17 30 -28 30 -60 0 -32 6 -43 30
-60 24 -17 30 -28 30 -60 0 -32 6 -43 30 -60 24 -17 30 -28 30 -60 0 -32 6
-43 30 -60 24 -17 30 -28 30 -60 0 -32 6 -43 30 -60 24 -17 30 -28 30 -60 0
-32 6 -43 30 -60 24 -17 30 -28 30 -60 0 -32 6 -43 30 -60 24 -17 30 -28 30
-60 0 -32 6 -43 30 -60 24 -17 30 -28 30 -60 0 -32 6 -43 30 -60 24 -17 30
-29 30 -57 0 -31 8 -44 60 -93 52 -49 60 -62 60 -93 0 -28 6 -40 30 -57 24
-17 30 -28 30 -60 0 -32 6 -43 30 -60 24 -17 30 -28 30 -60 0 -32 6 -43 30
-60 24 -17 30 -28 30 -60 0 -32 6 -43 30 -60 24 -17 30 -28 30 -60 0 -32 6
-43 30 -60 24 -17 30 -28 30 -60 0 -32 6 -43 30 -60 24 -17 30 -28 30 -60 0
-32 6 -43 30 -60 24 -17 30 -28 30 -60 0 -32 6 -43 30 -60 24 -17 30 -28 30
-60 0 -32 6 -43 30 -60 24 -17 30 -28 30 -60 0 -32 6 -43 30 -60 24 -17 30
-28 30 -60 0 -32 6 -43 30 -60 24 -17 30 -28 30 -60 0 -32 6 -43 30 -60 24
-17 30 -29 30 -57 0 -31 8 -44 60 -93 52 -49 60 -62 60 -93 0 -28 6 -40 30
-57 24 -17 30 -28 30 -60 0 -32 6 -43 30 -60 24 -17 30 -28 30 -60 0 -32 6
-43 30 -60 24 -17 30 -28 30 -60 0 -32 6 -43 30 -60 24 -17 30 -28 30 -60 0
-32 6 -43 30 -60 24 -17 30 -28 30 -60 0 -32 6 -43 30 -60 24 -17 30 -28 30
-60 0 -32 6 -43 30 -60 24 -17 30 -28 30 -60 0 -32 6 -43 30 -60 24 -17 30
-28 30 -60 0 -32 6 -43 30 -60 24 -17 30 -28 30 -60 0 -32 6 -43 30 -60 24
-17 30 -28 30 -60 0 -32 6 -43 30 -60 24 -17 30 -28 30 -60 0 -32 6 -43 30
-60 24 -17 30 -28 30 -60 0 -32 6 -43 30 -60 24 -17 30 -28 30 -60 0 -32 6
-43 30 -60 24 -17 30 -29 30 -57 0 -31 8 -44 60 -93 52 -49 60 -62 60 -93 0
-28 6 -40 30 -57 24 -17 30 -28 30 -60 0 -32 6 -43 30 -60 24 -17 30 -28 30
-60 0 -32 6 -43 30 -60 24 -17 30 -28 30 -60 0 -32 6 -43 30 -60 24 -17 30
-28 30 -60 0 -32 6 -43 30 -60 24 -17 30 -28 30 -60 0 -32 6 -43 30 -60 24
-17 30 -28 30 -60 0 -32 6 -43 30 -60 24 -17 30 -28 30 -60 0 -32 6 -43 30
-60 24 -17 30 -28 30 -60 0 -32 6 -43 30 -60 24 -17 30 -28 30 -60 0 -32 6
-43 30 -60 24 -17 30 -28 30 -60 0 -32 6 -43 30 -60 24 -17 30 -28 30 -60 0
-32 6 -43 30 -60 24 -17 30 -28 30 -60 0 -32 6 -43 30 -60 24 -17 30 -28 30
-60 0 -32 6 -43 30 -60 24 -17 30 -29 30 -57 0 -31 8 -44 60 -93 52 -49 60
-62 60 -93 0 -28 6 -40 30 -57 24 -17 30 -28 30 -60 0 -32 6 -43 30 -60 24
-17 30 -28 30 -60 0 -32 6 -43 30 -60 24 -17 30 -28 30 -60 0 -32 6 -43 30
-60 24 -17 30 -28 30 -60 0 -32 6 -43 30 -60 24 -17 30 -28 30 -60 0 -32 6
-43 30 -60 24 -17 30 -28 30 -60 0 -32 6 -43 30 -60 24 -17 30 -28 30 -60 0
-32 6 -43 30 -60 24 -17 30 -28 30 -60 0 -32 6 -43 30 -60 24 -17 30 -28 30
-60 0 -32 6 -43 30 -60 24 -17 30 -28 30 -60 0 -32 6 -43 30 -60 24 -17 30
-28 30 -60 0 -32 6 -43 30 -60 24 -17 30 -29 30 -57 0 -31 8 -44 60 -93 52
-49 60 -62 60 -93 0 -28 6 -40 30 -57 23 -17 30 -29 30 -56 0 -53 551 -604
604 -604 27 0 39 -7 56 -30 20 -28 25 -30 90 -30 65 0 70 -2 90 -30 21 -30 22
-30 120 -30 98 0 99 0 120 -30 l21 -30 1329 0 1329 0 21 30 c21 30 22 30 120
30 98 0 99 0 120 30 17 24 28 30 60 30 32 0 43 6 60 30 17 24 28 30 60 30 32
0 43 6 60 30 17 23 29 30 56 30 53 0 364 311 364 364 0 27 7 39 30 56 24 17
30 28 30 60 0 32 6 43 30 60 l30 21 0 129 0 129 30 21 c24 17 30 28 30 60 0
32 -6 43 -30 60 l-30 21 0 129 0 129 -30 21 c-28 20 -30 25 -30 90 0 65 -2 70
-30 90 -28 20 -30 25 -30 90 0 65 -2 70 -30 90 -24 17 -30 28 -30 60 0 32 -6
43 -30 60 -24 17 -30 28 -30 60 0 32 -6 43 -30 60 -24 17 -30 28 -30 60 0 32
-6 43 -30 60 -24 17 -30 28 -30 60 0 32 -6 43 -30 60 -24 17 -30 28 -30 60 0
32 -6 43 -30 60 -24 17 -30 28 -30 60 0 32 -6 43 -30 60 -24 17 -30 28 -30 60
0 32 -6 43 -30 60 -24 17 -30 28 -30 60 0 32 -6 43 -30 60 -24 17 -30 28 -30
60 0 32 -6 43 -30 60 -24 17 -30 29 -30 57 0 31 -8 44 -60 93 -52 49 -60 62
-60 93 0 28 -6 40 -30 57 -24 17 -30 28 -30 60 0 32 -6 43 -30 60 -24 17 -30
28 -30 60 0 32 -6 43 -30 60 -24 17 -30 28 -30 60 0 32 -6 43 -30 60 -24 17
-30 28 -30 60 0 32 -6 43 -30 60 -24 17 -30 28 -30 60 0 32 -6 43 -30 60 -24
17 -30 28 -30 60 0 32 -6 43 -30 60 -24 17 -30 28 -30 60 0 32 -6 43 -30 60
-24 17 -30 28 -30 60 0 32 -6 43 -30 60 -24 17 -30 28 -30 60 0 32 -6 43 -30
60 -24 17 -30 28 -30 60 0 32 -6 43 -30 60 -24 17 -30 28 -30 60 0 32 -6 43
-30 60 -24 17 -30 29 -30 57 0 31 -8 44 -60 93 -52 49 -60 62 -60 93 0 28 -6
40 -30 57 -24 17 -30 28 -30 60 0 32 -6 43 -30 60 -24 17 -30 28 -30 60 0 32
-6 43 -30 60 -24 17 -30 28 -30 60 0 32 -6 43 -30 60 -24 17 -30 28 -30 60 0
32 -6 43 -30 60 -24 17 -30 28 -30 60 0 32 -6 43 -30 60 -24 17 -30 28 -30 60
0 32 -6 43 -30 60 -24 17 -30 28 -30 60 0 32 -6 43 -30 60 -24 17 -30 28 -30
60 0 32 -6 43 -30 60 -24 17 -30 28 -30 60 0 32 -6 43 -30 60 -24 17 -30 28
-30 60 0 32 -6 43 -30 60 -24 17 -30 28 -30 60 0 32 -6 43 -30 60 -24 17 -30
29 -30 57 0 31 -8 44 -60 93 -52 49 -60 62 -60 93 0 28 -6 40 -30 57 -24 17
-30 28 -30 60 0 32 -6 43 -30 60 -24 17 -30 28 -30 60 0 32 -6 43 -30 60 -24
17 -30 28 -30 60 0 32 -6 43 -30 60 -24 17 -30 28 -30 60 0 32 -6 43 -30 60
-24 17 -30 28 -30 60 0 32 -6 43 -30 60 -24 17 -30 28 -30 60 0 32 -6 43 -30
60 -24 17 -30 28 -30 60 0 32 -6 43 -30 60 -24 17 -30 28 -30 60 0 32 -6 43
-30 60 -24 17 -30 28 -30 60 0 32 -6 43 -30 60 -24 17 -30 28 -30 60 0 32 -6
43 -30 60 -24 17 -30 28 -30 60 0 32 -6 43 -30 60 -24 17 -30 29 -30 57 0 31
-8 44 -60 93 -52 49 -60 62 -60 93 0 28 -6 40 -30 57 -24 17 -30 28 -30 60 0
32 -6 43 -30 60 -24 17 -30 28 -30 60 0 32 -6 43 -30 60 -24 17 -30 28 -30 60
0 32 -6 43 -30 60 -24 17 -30 28 -30 60 0 32 -6 43 -30 60 -24 17 -30 28 -30
60 0 32 -6 43 -30 60 -24 17 -30 28 -30 60 0 32 -6 43 -30 60 -24 17 -30 28
-30 60 0 32 -6 43 -30 60 -24 17 -30 28 -30 60 0 32 -6 43 -30 60 -24 17 -30
28 -30 60 0 32 -6 43 -30 60 -24 17 -30 28 -30 60 0 32 -6 43 -30 60 -24 17
-30 29 -30 57 0 31 -8 44 -60 93 -52 49 -60 62 -60 93 0 28 -6 40 -30 57 -24
17 -30 28 -30 60 0 32 -6 43 -30 60 -24 17 -30 28 -30 60 0 32 -6 43 -30 60
-24 17 -30 28 -30 60 0 32 -6 43 -30 60 -24 17 -30 28 -30 60 0 32 -6 43 -30
60 -24 17 -30 28 -30 60 0 32 -6 43 -30 60 -24 17 -30 28 -30 60 0 32 -6 43
-30 60 -24 17 -30 28 -30 60 0 32 -6 43 -30 60 -24 17 -30 28 -30 60 0 32 -6
43 -30 60 -24 17 -30 28 -30 60 0 32 -6 43 -30 60 -24 17 -30 28 -30 60 0 32
-6 43 -30 60 -24 17 -30 29 -30 57 0 31 -8 44 -60 93 -52 49 -60 62 -60 93 0
28 -6 40 -30 57 -24 17 -30 28 -30 60 0 32 -6 43 -30 60 -24 17 -30 28 -30 60
0 32 -6 43 -30 60 -24 17 -30 28 -30 60 0 32 -6 43 -30 60 -24 17 -30 28 -30
60 0 32 -6 43 -30 60 -24 17 -30 28 -30 60 0 32 -6 43 -30 60 -24 17 -30 28
-30 60 0 32 -6 43 -30 60 -24 17 -30 28 -30 60 0 32 -6 43 -30 60 -24 17 -30
28 -30 60 0 32 -6 43 -30 60 -24 17 -30 28 -30 60 0 32 -6 43 -30 60 -24 17
-30 28 -30 60 0 32 -6 43 -30 60 -24 17 -30 29 -30 57 0 31 -8 44 -60 93 -52
49 -60 62 -60 93 0 28 -6 40 -30 57 -24 17 -30 28 -30 60 0 32 -6 43 -30 60
-24 17 -30 28 -30 60 0 32 -6 43 -30 60 -24 17 -30 28 -30 60 0 32 -6 43 -30
60 -24 17 -30 28 -30 60 0 32 -6 43 -30 60 -24 17 -30 28 -30 60 0 32 -6 43
-30 60 -24 17 -30 28 -30 60 0 32 -6 43 -30 60 -24 17 -30 28 -30 60 0 32 -6
43 -30 60 -24 17 -30 28 -30 60 0 32 -6 43 -30 60 -24 17 -30 28 -30 60 0 32
-6 43 -30 60 -24 17 -30 28 -30 60 0 32 -6 43 -30 60 -24 17 -30 29 -30 57 0
31 -8 44 -60 93 -52 49 -60 62 -60 93 0 28 -6 40 -30 57 -24 17 -30 28 -30 60
0 32 -6 43 -30 60 -24 17 -30 28 -30 60 0 32 -6 43 -30 60 -24 17 -30 28 -30
60 0 32 -6 43 -30 60 -24 17 -30 28 -30 60 0 32 -6 43 -30 60 -24 17 -30 28
-30 60 0 32 -6 43 -30 60 -24 17 -30 28 -30 60 0 32 -6 43 -30 60 -24 17 -30
28 -30 60 0 32 -6 43 -30 60 -24 17 -30 28 -30 60 0 32 -6 43 -30 60 -24 17
-30 28 -30 60 0 32 -6 43 -30 60 -24 17 -30 28 -30 60 0 32 -6 43 -30 60 -24
17 -30 28 -30 60 0 32 -6 43 -30 60 -24 17 -30 29 -30 57 0 31 -8 44 -60 93
-52 49 -60 62 -60 93 0 28 -6 40 -30 57 -24 17 -30 28 -30 60 0 32 -6 43 -30
60 -24 17 -30 28 -30 60 0 32 -6 43 -30 60 -24 17 -30 29 -30 57 0 31 -8 44
-60 93 -52 49 -60 62 -60 93 0 28 -6 40 -30 57 -24 17 -30 29 -30 57 0 31 -8
44 -60 93 -50 47 -60 62 -60 90 0 28 -10 43 -60 90 -49 47 -60 62 -60 89 0 29
-16 48 -120 151 -102 101 -120 123 -120 149 0 47 -734 781 -781 781 -26 0 -46
15 -119 90 -75 77 -92 90 -120 90 -28 0 -43 10 -90 60 -47 50 -62 60 -90 60
-28 0 -43 10 -90 60 -49 52 -62 60 -93 60 -28 0 -40 6 -57 30 -17 24 -28 30
-60 30 -32 0 -43 6 -60 30 -17 24 -29 30 -57 30 -31 0 -44 8 -93 60 l-57 60
-66 0 c-62 0 -67 2 -87 30 -17 24 -28 30 -60 30 -32 0 -43 6 -60 30 -17 24
-28 30 -60 30 -32 0 -43 6 -60 30 -20 28 -25 30 -90 30 -65 0 -70 2 -90 30
-17 24 -28 30 -60 30 -32 0 -43 6 -60 30 -20 28 -25 30 -90 30 -65 0 -70 2
-90 30 -21 30 -22 30 -120 30 -98 0 -99 0 -120 30 l-21 30 -129 0 -129 0 -21
30 -21 30 -189 0 -189 0 -21 30 -21 30 -489 0 -489 0 -21 -30z"/></g><g fill="#F3F1EC" transform="translate(132.3,131.7) scale(0.21163) translate(0.000000,3600.000000) scale(0.100000,-0.100000)"><path d="M29580 26790 c-20 -28 -25 -30 -90 -30 -65 0 -70 -2 -90 -30 -17 -24
-28 -30 -60 -30 -32 0 -43 -6 -60 -30 -17 -23 -29 -30 -56 -30 -31 0 -50 -15
-199 -165 -150 -149 -165 -168 -165 -199 0 -27 -7 -39 -30 -56 -24 -17 -30
-28 -30 -60 0 -32 -6 -43 -30 -60 -28 -20 -30 -25 -30 -90 0 -65 -2 -70 -30
-90 l-30 -21 0 -8169 0 -8169 30 -21 c28 -20 30 -25 30 -90 0 -65 2 -70 30
-90 28 -20 30 -25 30 -87 l0 -66 60 -57 c49 -46 60 -63 60 -89 0 -47 134 -181
181 -181 26 0 43 -11 89 -60 49 -52 62 -60 93 -60 28 0 40 -6 57 -30 21 -30
22 -30 120 -30 98 0 99 0 120 -30 l21 -30 1239 0 1239 0 21 30 c20 28 25 30
90 30 65 0 70 2 90 30 20 28 26 30 87 30 l65 0 88 90 c77 79 92 90 122 90 43
0 58 15 58 59 0 29 9 43 60 91 52 49 60 62 60 93 0 28 6 40 30 57 24 17 30 28
30 60 0 32 6 43 30 60 24 17 30 28 30 60 0 32 6 43 30 60 l30 21 0 8199 0
8199 -30 21 c-28 20 -30 25 -30 90 0 65 -2 70 -30 90 -28 20 -30 26 -30 86 l0
64 -195 195 c-178 178 -198 195 -229 195 -27 0 -39 7 -56 30 -17 24 -28 30
-60 30 -32 0 -43 6 -60 30 -21 30 -22 30 -120 30 -98 0 -99 0 -120 30 l-21 30
-1209 0 -1209 0 -21 -30z"/></g></svg>