<svg xmlns="http://www.w3.org/2000/svg" viewBox="0 0 1024 1024" width="1024" height="1024">
<rect width="1024" height="1024" rx="184" fill="#0A0A0B"/>
<g fill="#F3F1EC" transform="translate(193.5,311.1) scale(1.2715)">
<path d="M 386.37 316.00 L 351.75 316.00 Q 346.88 315.29 343.75 314.50 C 335.75 312.51 330.10 305.09 326.33 297.93 Q 320.37 286.62 315.01 275.95 C 309.41 264.78 303.83 254.52 298.17 243.28 C 293.70 234.41 288.82 225.58 284.46 216.84 Q 278.10 204.12 271.46 191.55 Q 266.26 181.70 261.14 171.81 Q 245.74 142.06 229.97 111.46 Q 224.85 101.50 220.06 92.22 C 218.26 88.72 215.80 84.75 213.21 82.34 C 202.38 72.28 194.22 82.98 189.55 92.00 Q 160.94 147.31 133.50 200.50 Q 107.67 250.58 83.53 296.86 C 78.81 305.93 73.96 312.82 63.22 314.87 Q 59.94 315.50 56.63 316.00 L 23.26 316.00 Q 19.60 315.53 16.05 314.78 Q 6.36 312.75 2.14 304.39 Q -0.80 298.56 1.05 291.84 Q 2.26 287.47 4.06 283.80 Q 10.74 270.24 17.23 257.73 Q 55.42 184.09 92.75 112.04 Q 109.62 79.48 126.33 47.84 Q 136.36 28.87 153.46 16.72 C 171.71 3.76 194.72 -2.21 217.40 1.31 Q 225.08 2.50 230.95 4.49 Q 263.96 15.72 281.83 45.91 C 287.82 56.03 293.09 66.94 298.67 77.63 C 333.49 144.36 368.73 212.47 403.75 280.00 Q 406.97 286.21 408.47 291.28 C 411.74 302.42 405.03 312.06 394.25 314.78 Q 392.58 315.20 386.37 316.00 Z"/>
<path d="M 501.00 30.12 L 501.00 295.00 Q 500.75 296.32 500.64 297.68 Q 500.51 299.11 500.09 300.35 Q 495.59 313.42 481.42 313.90 Q 467.73 314.37 449.82 313.96 Q 431.76 313.54 429.14 296.47 Q 428.62 293.12 428.84 282.82 Q 428.99 275.92 428.99 269.13 Q 429.01 148.10 429.00 32.70 C 429.00 20.28 435.61 11.87 448.41 11.23 Q 463.08 10.49 480.50 11.17 Q 482.83 11.26 485.23 11.79 Q 499.95 15.06 501.00 30.12 Z"/>
</g>
</svg>
