<?xml version="1.0" encoding="UTF-8" standalone="no"?>
<!DOCTYPE svg PUBLIC "-//W3C//DTD SVG 1.1//EN" "http://www.w3.org/Graphics/SVG/1.1/DTD/svg11.dtd">
<svg xmlns="http://www.w3.org/2000/svg" version="1.1" viewBox="0.00 0.00 2194.00 355.00">
<path fill="#959595" d="
  M 1509.8762 23.2410
  A 21.16 20.65 5.1 0 1 1486.9643 41.9282
  A 21.16 20.65 5.1 0 1 1467.7238 19.4790
  A 21.16 20.65 5.1 0 1 1490.6357 0.7918
  A 21.16 20.65 5.1 0 1 1509.8762 23.2410
  Z"
/>
<path fill="#959595" d="
  M 2018.2961 21.7468
  A 21.19 20.68 1.1 0 1 1996.7130 42.0162
  A 21.19 20.68 1.1 0 1 1975.9239 20.9332
  A 21.19 20.68 1.1 0 1 1997.5070 0.6638
  A 21.19 20.68 1.1 0 1 2018.2961 21.7468
  Z"
/>
<path fill="#379543" d="
  M 0.00 296.07
  L 0.00 290.50
  Q 1.31 284.47 3.57 279.81
  C 10.99 264.53 20.21 247.33 28.14 231.89
  Q 74.66 141.39 116.48 61.29
  C 129.65 36.05 154.82 18.53 183.96 16.89
  Q 219.98 14.87 246.45 40.39
  Q 256.42 50.00 263.40 63.34
  Q 302.12 137.43 339.78 210.68
  Q 355.52 241.29 372.66 274.04
  Q 374.97 278.46 376.91 283.11
  C 381.24 293.48 379.96 303.74 368.53 308.63
  Q 364.22 310.47 356.46 310.87
  Q 343.30 311.56 329.79 310.93
  Q 323.75 310.66 318.33 309.26
  C 311.61 307.52 306.80 301.26 303.40 295.23
  C 296.60 283.19 290.54 269.43 283.67 256.82
  C 278.63 247.56 274.26 238.33 269.31 229.04
  C 262.49 216.24 256.22 203.31 249.59 190.62
  Q 237.00 166.49 224.83 142.62
  C 218.00 129.22 210.80 115.75 204.17 102.29
  C 200.36 94.57 191.59 82.85 181.97 92.35
  Q 178.84 95.44 176.52 99.69
  Q 166.17 118.70 154.52 141.40
  Q 138.30 173.05 119.70 209.24
  Q 97.27 252.90 76.22 293.72
  C 73.14 299.69 67.54 306.90 60.96 308.86
  Q 55.43 310.51 49.47 310.85
  Q 38.38 311.47 25.91 311.04
  C 14.81 310.65 2.99 309.22 0.00 296.07
  Z"
/>
<path fill="#b4cfbe" d="
  M 398.03 50.00
  C 398.03 36.43 402.74 27.03 417.72 26.92
  Q 431.06 26.82 444.70 26.91
  Q 450.62 26.95 454.57 28.68
  C 463.65 32.66 464.99 40.83 464.99 49.64
  Q 465.03 168.86 464.96 287.91
  Q 464.96 291.68 463.77 295.83
  C 461.48 303.86 455.72 308.20 446.97 308.75
  Q 429.65 309.83 414.77 308.58
  Q 409.92 308.17 405.72 305.62
  C 400.06 302.18 398.01 293.56 398.01 287.55
  Q 397.98 166.03 398.03 50.00
  Z"
/>
<path fill="#959595" d="
  M 754.26 234.33
  Q 753.76 234.52 753.44 234.94
  C 736.90 256.55 705.86 261.54 680.49 256.18
  C 658.54 251.55 638.62 235.08 636.84 211.72
  C 635.47 193.87 639.16 178.26 653.59 166.33
  Q 664.21 157.56 677.25 153.13
  Q 694.55 147.26 715.62 145.89
  Q 734.33 144.67 751.91 145.05
  A 1.06 1.06 0.0 0 0 752.99 144.03
  C 753.44 133.90 750.50 120.36 741.91 113.66
  C 731.81 105.79 720.61 105.36 708.07 105.93
  C 690.25 106.74 675.77 114.06 662.58 125.75
  Q 661.77 126.48 661.06 125.65
  Q 653.42 116.74 646.36 108.77
  Q 644.73 106.93 643.26 104.89
  Q 642.96 104.47 643.31 104.08
  C 659.16 86.67 681.78 78.92 704.72 77.33
  C 716.31 76.52 728.13 76.41 739.51 79.18
  C 764.75 85.33 782.43 105.66 784.04 131.74
  Q 784.35 136.86 784.34 142.00
  Q 784.23 176.53 784.22 211.02
  Q 784.22 211.57 784.55 212.02
  Q 784.94 212.55 784.54 213.06
  Q 784.23 213.48 784.33 213.99
  Q 784.73 215.94 784.79 218.24
  Q 785.26 235.46 787.82 252.82
  Q 788.00 254.01 786.79 254.01
  L 757.99 253.99
  A 1.02 1.02 0.0 0 1 756.99 253.10
  C 756.47 248.94 756.09 244.53 755.27 240.34
  Q 754.78 237.84 755.03 234.92
  A 0.58 0.57 -7.5 0 0 754.26 234.33
  Z
  M 713.93 173.32
  C 702.25 174.55 690.10 177.71 679.80 184.41
  C 673.65 188.42 670.34 193.79 669.97 201.27
  C 669.67 207.49 671.05 213.40 675.40 218.12
  C 684.83 228.35 698.69 229.93 712.22 228.96
  Q 723.77 228.13 734.00 221.36
  C 750.23 210.63 754.28 190.89 752.88 172.56
  Q 752.85 172.16 752.45 172.14
  Q 732.61 171.36 713.93 173.32
  Z"
/>
<path fill="#959595" d="
  M 1014.97 355.00
  L 983.76 355.00
  L 983.87 232.92
  Q 983.87 231.40 983.07 232.69
  C 981.83 234.69 979.76 235.59 978.12 237.26
  Q 975.52 239.93 972.32 242.14
  Q 946.26 260.23 912.29 257.78
  C 886.82 255.94 862.28 244.29 846.54 223.97
  Q 832.39 205.69 829.05 184.50
  Q 827.24 173.02 827.85 161.45
  C 830.08 118.99 860.70 84.56 903.23 78.13
  C 925.36 74.78 947.71 77.59 966.92 89.20
  Q 974.90 94.02 983.33 101.67
  Q 983.78 102.08 983.78 101.47
  L 983.77 81.37
  A 0.37 0.36 90.0 0 1 984.13 81.00
  L 1014.24 81.00
  Q 1015.00 81.00 1015.00 81.76
  L 1014.97 355.00
  Z
  M 984.43 172.09
  Q 985.10 163.44 983.48 155.35
  Q 977.86 127.28 952.75 113.41
  Q 938.62 105.61 922.03 105.78
  C 915.35 105.85 908.47 106.13 902.21 108.12
  C 868.39 118.90 854.82 154.04 863.69 186.63
  C 870.19 210.56 890.58 227.36 915.35 228.99
  C 930.52 229.99 945.25 227.05 957.79 218.38
  Q 982.13 201.55 984.43 172.09
  Z"
/>
<path fill="#959595" d="
  M 1383.50 234.93
  A 0.98 0.97 -53.7 0 0 1382.30 235.12
  Q 1379.32 238.31 1376.07 241.38
  Q 1364.37 252.41 1347.15 256.05
  Q 1327.35 260.23 1308.55 256.07
  C 1285.17 250.91 1266.34 233.91 1265.02 209.13
  Q 1264.20 193.81 1269.92 181.77
  C 1276.51 167.90 1291.45 158.12 1306.09 153.08
  Q 1322.64 147.39 1343.61 145.94
  Q 1360.97 144.75 1379.49 145.02
  Q 1382.04 145.05 1381.86 142.56
  C 1381.40 136.13 1380.46 128.82 1377.59 123.04
  C 1368.94 105.60 1348.71 104.29 1331.68 106.41
  Q 1308.58 109.29 1291.40 125.92
  Q 1290.91 126.39 1290.41 125.94
  Q 1288.09 123.89 1286.09 121.56
  Q 1278.45 112.65 1271.53 104.83
  Q 1271.09 104.33 1271.55 103.84
  C 1282.26 92.61 1296.27 84.82 1311.39 80.98
  Q 1336.47 74.61 1362.47 78.00
  Q 1368.27 78.75 1374.60 81.13
  Q 1403.97 92.18 1411.36 122.36
  Q 1413.01 129.11 1412.99 137.34
  Q 1412.92 175.57 1413.09 215.89
  Q 1413.14 228.26 1416.34 253.38
  Q 1416.43 254.02 1415.78 254.02
  L 1386.98 253.97
  A 1.20 1.20 0.0 0 1 1385.81 253.05
  Q 1383.85 244.92 1383.94 235.70
  Q 1383.95 235.19 1383.50 234.93
  Z
  M 1359.85 172.10
  Q 1341.13 172.37 1324.53 176.91
  C 1314.72 179.58 1300.24 186.78 1299.08 197.91
  Q 1298.63 202.20 1298.95 206.60
  C 1299.54 214.53 1305.10 221.19 1312.22 224.64
  C 1322.53 229.63 1335.49 230.20 1346.37 228.11
  C 1364.03 224.72 1377.36 210.65 1380.41 193.03
  Q 1382.09 183.27 1382.02 173.27
  Q 1382.01 172.02 1380.76 172.01
  Q 1371.02 171.94 1359.85 172.10
  Z"
/>
<path fill="#959595" d="
  M 1593.59 99.76
  C 1596.47 97.29 1598.86 94.38 1601.87 92.10
  Q 1621.42 77.26 1645.60 76.82
  C 1666.99 76.43 1689.30 82.24 1701.79 101.02
  Q 1709.94 113.27 1711.98 127.96
  Q 1713.10 136.07 1713.07 146.95
  Q 1712.92 199.66 1713.02 253.19
  Q 1713.03 254.00 1712.22 254.00
  L 1682.75 254.00
  A 0.78 0.77 0.0 0 1 1681.97 253.23
  Q 1682.11 200.44 1681.89 156.95
  Q 1681.84 145.22 1679.19 133.51
  C 1676.00 119.44 1667.81 109.08 1652.93 106.63
  C 1642.25 104.87 1629.62 105.57 1619.98 110.67
  C 1607.21 117.43 1597.59 130.87 1594.65 144.59
  Q 1593.06 152.03 1593.05 160.25
  Q 1593.00 206.86 1593.00 253.29
  A 0.72 0.71 0.0 0 1 1592.28 254.00
  L 1561.52 254.00
  A 0.54 0.53 90.0 0 1 1560.99 253.46
  Q 1561.00 188.65 1561.02 121.91
  C 1561.03 108.09 1560.46 95.19 1559.19 81.91
  A 0.83 0.82 87.2 0 1 1560.01 81.00
  L 1589.87 81.02
  Q 1591.11 81.02 1591.31 82.24
  Q 1592.31 88.24 1591.97 94.96
  C 1591.90 96.47 1592.48 97.99 1592.77 99.48
  Q 1592.94 100.32 1593.59 99.76
  Z"
/>
<path fill="#959595" d="
  M 1800.11 99.49
  Q 1800.21 100.43 1800.85 99.73
  C 1814.63 84.72 1835.37 76.63 1855.13 76.79
  C 1871.69 76.92 1888.20 80.40 1900.98 91.52
  C 1909.50 98.93 1915.76 111.16 1918.11 121.79
  Q 1920.95 134.61 1920.97 149.98
  Q 1921.02 197.89 1920.99 253.32
  A 0.68 0.68 0.0 0 1 1920.31 254.00
  L 1889.71 254.00
  A 0.72 0.72 0.0 0 1 1888.99 253.28
  Q 1889.07 202.54 1888.91 152.56
  C 1888.87 139.85 1885.31 119.78 1874.28 112.34
  Q 1867.66 107.88 1860.42 106.67
  Q 1848.33 104.65 1836.86 107.12
  Q 1827.36 109.17 1818.97 116.54
  Q 1803.50 130.11 1800.94 150.59
  Q 1800.08 157.50 1800.06 163.46
  Q 1799.93 205.17 1800.02 253.25
  A 0.75 0.75 0.0 0 1 1799.27 254.00
  L 1769.56 254.00
  A 0.57 0.57 0.0 0 1 1768.99 253.43
  Q 1769.02 196.26 1768.98 139.26
  C 1768.97 122.00 1768.26 105.48 1767.20 88.62
  Q 1766.99 85.34 1767.02 82.18
  Q 1767.03 81.00 1768.20 81.00
  L 1798.25 81.00
  A 0.78 0.77 2.0 0 1 1799.03 81.83
  Q 1798.72 86.58 1799.61 91.09
  C 1800.17 93.93 1799.80 96.67 1800.11 99.49
  Z"
/>
<path fill="#959595" d="
  M 2153.93 219.79
  C 2160.57 213.27 2162.02 203.47 2157.34 195.48
  C 2154.77 191.09 2148.18 188.33 2143.47 186.62
  Q 2135.37 183.66 2127.76 182.02
  Q 2116.52 179.60 2105.01 176.72
  Q 2097.78 174.91 2090.32 171.63
  C 2077.60 166.02 2065.76 154.67 2062.84 141.00
  Q 2061.29 133.79 2061.91 125.43
  C 2064.60 89.01 2101.08 75.42 2132.61 76.94
  Q 2151.35 77.84 2165.54 85.56
  Q 2179.99 93.43 2188.68 110.97
  Q 2188.93 111.46 2188.47 111.76
  L 2162.51 128.67
  Q 2161.30 129.46 2160.67 128.16
  C 2154.49 115.62 2144.63 106.39 2129.99 105.81
  Q 2120.55 105.43 2112.91 107.25
  C 2101.85 109.90 2093.03 118.39 2095.49 130.61
  Q 2096.85 137.37 2103.02 140.94
  Q 2108.77 144.25 2115.14 146.08
  Q 2127.68 149.66 2147.79 154.01
  C 2169.82 158.76 2190.29 173.09 2192.97 196.26
  C 2194.68 211.01 2191.90 224.57 2182.12 236.15
  C 2169.77 250.78 2150.54 256.57 2131.00 257.87
  Q 2111.65 259.15 2093.24 253.12
  C 2075.85 247.43 2064.53 236.59 2054.46 221.89
  A 0.98 0.97 55.8 0 1 2054.72 220.52
  L 2080.54 203.30
  A 0.53 0.53 0.0 0 1 2081.28 203.46
  C 2085.39 210.12 2090.09 215.97 2096.59 220.69
  Q 2106.67 228.01 2118.15 228.93
  C 2130.37 229.92 2145.25 228.32 2153.93 219.79
  Z"
/>
<path fill="#959595" d="
  M 1186.15 235.24
  Q 1182.91 238.70 1178.96 241.76
  Q 1157.42 258.42 1131.16 258.10
  C 1117.32 257.92 1103.75 255.11 1091.93 247.69
  C 1081.18 240.94 1073.99 229.94 1070.21 217.86
  C 1066.76 206.85 1065.95 194.85 1065.97 183.08
  Q 1066.04 132.90 1065.99 82.24
  Q 1065.99 81.00 1067.23 81.00
  L 1097.28 81.00
  A 0.76 0.75 90.0 0 1 1098.03 81.76
  Q 1097.90 140.07 1098.09 184.72
  Q 1098.13 194.11 1100.74 203.93
  C 1103.83 215.53 1111.42 224.30 1123.23 227.33
  Q 1136.70 230.80 1150.24 227.64
  Q 1162.14 224.87 1171.36 215.18
  Q 1184.30 201.58 1186.29 181.70
  Q 1186.88 175.82 1186.90 170.61
  Q 1187.11 126.81 1186.97 81.77
  A 0.77 0.76 -0.4 0 1 1187.74 81.00
  L 1217.30 81.00
  A 0.69 0.68 90.0 0 1 1217.98 81.69
  Q 1218.03 142.16 1217.98 202.39
  C 1217.96 218.05 1219.02 233.56 1219.93 249.38
  Q 1220.04 251.21 1219.95 253.12
  A 0.92 0.92 0.0 0 1 1219.03 254.00
  L 1188.99 254.00
  Q 1188.01 254.00 1188.00 253.02
  C 1187.95 247.10 1186.88 241.42 1186.92 235.55
  A 0.45 0.45 0.0 0 0 1186.15 235.24
  Z"
/>
<path fill="#959595" d="
  M 1504.23 81.51
  L 1504.23 253.49
  A 0.51 0.51 0.0 0 1 1503.72 254.00
  L 1473.51 254.00
  A 0.51 0.51 0.0 0 1 1473.00 253.49
  L 1473.00 81.51
  A 0.51 0.51 0.0 0 1 1473.51 81.00
  L 1503.72 81.00
  A 0.51 0.51 0.0 0 1 1504.23 81.51
  Z"
/>
<path fill="#959595" d="
  M 2013.00 253.39
  A 0.61 0.61 0.0 0 1 2012.39 254.00
  L 1981.61 254.00
  A 0.61 0.61 0.0 0 1 1981.00 253.39
  L 1981.00 81.61
  A 0.61 0.61 0.0 0 1 1981.61 81.00
  L 2012.39 81.00
  A 0.61 0.61 0.0 0 1 2013.00 81.61
  L 2013.00 253.39
  Z"
/>
</svg>
