<svg xmlns="http://www.w3.org/2000/svg" viewBox="0 0 3000 486"><g class="mark" fill="#C8A15A" transform="translate(0.000000,486.000000) scale(0.100000,-0.100000)"><path d="M2220 4590 c-17 -24 -28 -30 -60 -30 -32 0 -43 -6 -60 -30 -17 -24
-29 -30 -57 -30 -31 0 -44 -8 -93 -60 -47 -49 -63 -60 -89 -60 -46 0 -121 -75
-121 -121 0 -26 -11 -42 -60 -89 -50 -47 -60 -62 -60 -90 0 -28 -10 -43 -60
-90 -52 -49 -60 -62 -60 -93 0 -28 -6 -40 -30 -57 -24 -17 -30 -28 -30 -60 0
-32 -6 -43 -30 -60 -24 -17 -30 -28 -30 -60 0 -32 -6 -43 -30 -60 -24 -17 -30
-28 -30 -60 0 -32 -6 -43 -30 -60 -24 -17 -30 -28 -30 -60 0 -32 -6 -43 -30
-60 -24 -17 -30 -28 -30 -60 0 -32 -6 -43 -30 -60 -24 -17 -30 -28 -30 -60 0
-32 -6 -43 -30 -60 -24 -17 -30 -28 -30 -60 0 -32 -6 -43 -30 -60 -24 -17 -30
-28 -30 -60 0 -32 -6 -43 -30 -60 -24 -17 -30 -28 -30 -60 0 -32 -6 -43 -30
-60 -24 -17 -30 -28 -30 -60 0 -32 -6 -43 -30 -60 -24 -17 -30 -28 -30 -60 0
-32 -6 -43 -30 -60 -24 -17 -30 -28 -30 -60 0 -32 -6 -43 -30 -60 -24 -17 -30
-29 -30 -57 0 -31 -8 -44 -60 -93 -52 -49 -60 -62 -60 -93 0 -28 -6 -40 -30
-57 -24 -17 -30 -28 -30 -60 0 -32 -6 -43 -30 -60 -24 -17 -30 -28 -30 -60 0
-32 -6 -43 -30 -60 -24 -17 -30 -28 -30 -60 0 -32 -6 -43 -30 -60 -24 -17 -30
-28 -30 -60 0 -32 -6 -43 -30 -60 -24 -17 -30 -28 -30 -60 0 -32 -6 -43 -30
-60 -24 -17 -30 -28 -30 -60 0 -32 -6 -43 -30 -60 -24 -17 -30 -28 -30 -60 0
-32 -6 -43 -30 -60 -24 -17 -30 -28 -30 -60 0 -32 -6 -43 -30 -60 -26 -18 -30
-28 -30 -66 0 -41 -2 -45 -30 -50 l-30 -6 0 -149 c0 -137 1 -149 18 -149 10 0
43 -27 73 -60 l54 -60 337 0 337 0 21 30 c17 24 29 30 56 30 51 0 124 73 124
124 0 27 6 39 30 56 24 17 30 28 30 60 0 32 6 43 30 60 24 17 30 28 30 60 0
32 6 43 30 60 24 17 30 29 30 57 0 31 8 44 60 93 52 49 60 62 60 93 0 28 6 40
30 57 24 17 30 28 30 60 0 32 6 43 30 60 24 17 30 28 30 60 0 32 6 43 30 60
24 17 30 28 30 60 0 32 6 43 30 60 24 17 30 28 30 60 0 32 6 43 30 60 24 17
30 28 30 60 0 32 6 43 30 60 24 17 30 28 30 60 0 32 6 43 30 60 24 17 30 28
30 60 0 32 6 43 30 60 24 17 30 28 30 60 0 32 6 43 30 60 24 17 30 28 30 60 0
32 6 43 30 60 24 17 30 28 30 60 0 32 6 43 30 60 24 17 30 28 30 60 0 32 6 43
30 60 24 17 30 28 30 60 0 32 6 43 30 60 24 17 30 28 30 60 0 32 6 43 30 60
24 17 30 28 30 60 0 32 6 43 30 60 24 17 30 28 30 60 0 32 6 43 30 60 24 17
30 29 30 57 0 31 8 44 60 93 52 49 60 62 60 93 0 28 6 40 30 57 24 17 30 29
30 59 0 55 12 61 118 61 l94 0 44 -44 c35 -36 44 -51 44 -80 0 -27 6 -39 30
-56 24 -17 30 -28 30 -60 0 -32 6 -43 30 -60 24 -17 30 -28 30 -60 0 -32 6
-43 30 -60 24 -17 30 -28 30 -60 0 -32 6 -43 30 -60 24 -17 30 -28 30 -60 0
-32 6 -43 30 -60 24 -17 30 -28 30 -60 0 -32 6 -43 30 -60 24 -17 30 -29 30
-57 0 -31 8 -44 60 -93 52 -49 60 -62 60 -93 0 -28 6 -40 30 -57 24 -17 30
-28 30 -60 0 -32 6 -43 30 -60 24 -17 30 -28 30 -60 0 -32 6 -43 30 -60 24
-17 30 -28 30 -60 0 -32 6 -43 30 -60 24 -17 30 -28 30 -60 0 -32 6 -43 30
-60 24 -17 30 -28 30 -60 0 -32 6 -43 30 -60 24 -17 30 -28 30 -60 0 -32 6
-43 30 -60 24 -17 30 -28 30 -60 0 -32 6 -43 30 -60 24 -17 30 -28 30 -60 0
-32 6 -43 30 -60 24 -17 30 -28 30 -60 0 -32 6 -43 30 -60 24 -17 30 -28 30
-60 0 -32 6 -43 30 -60 24 -17 30 -28 30 -60 0 -32 6 -43 30 -60 24 -17 30
-28 30 -60 0 -32 6 -43 30 -60 24 -17 30 -28 30 -60 0 -32 6 -43 30 -60 24
-17 30 -29 30 -57 0 -31 8 -44 60 -93 51 -48 60 -62 60 -91 0 -45 15 -59 61
-59 30 0 42 -6 59 -30 l21 -30 339 0 339 0 21 30 c17 24 29 30 59 30 47 0 61
14 61 61 0 30 6 42 30 59 24 17 30 28 30 60 0 32 -6 43 -30 60 -28 20 -30 25
-30 90 0 65 -2 70 -30 90 -24 17 -30 28 -30 60 0 32 -6 43 -30 60 -24 17 -30
28 -30 60 0 32 -6 43 -30 60 -24 17 -30 28 -30 60 0 32 -6 43 -30 60 -24 17
-30 28 -30 60 0 32 -6 43 -30 60 -24 17 -30 29 -30 57 0 31 -8 44 -60 93 -52
49 -60 62 -60 93 0 28 -6 40 -30 57 -24 17 -30 28 -30 60 0 32 -6 43 -30 60
-24 17 -30 28 -30 60 0 32 -6 43 -30 60 -24 17 -30 28 -30 60 0 32 -6 43 -30
60 -24 17 -30 28 -30 60 0 32 -6 43 -30 60 -24 17 -30 28 -30 60 0 32 -6 43
-30 60 -24 17 -30 28 -30 60 0 32 -6 43 -30 60 -24 17 -30 28 -30 60 0 32 -6
43 -30 60 -24 17 -30 28 -30 60 0 32 -6 43 -30 60 -24 17 -30 28 -30 60 0 32
-6 43 -30 60 -24 17 -30 28 -30 60 0 32 -6 43 -30 60 -24 17 -30 28 -30 60 0
32 -6 43 -30 60 -24 17 -30 28 -30 60 0 32 -6 43 -30 60 -24 17 -30 29 -30 57
0 31 -8 44 -60 93 -52 49 -60 62 -60 93 0 28 -6 40 -30 57 -24 17 -30 28 -30
60 0 32 -6 43 -30 60 -24 17 -30 28 -30 60 0 32 -6 43 -30 60 -24 17 -30 28
-30 60 0 32 -6 43 -30 60 -24 17 -30 29 -30 57 0 31 -8 44 -60 93 -49 46 -60
63 -60 89 0 49 -194 241 -244 241 -27 0 -39 7 -56 30 -17 24 -28 30 -60 30
-32 0 -43 6 -60 30 -17 24 -28 30 -60 30 -32 0 -43 6 -60 30 l-21 30 -339 0
-339 0 -21 -30z"/></g><g class="text" fill="#F3F1EC" transform="translate(0.000000,486.000000) scale(0.100000,-0.100000)"><path d="M20217 4830 c-4 -16 -11 -30 -17 -30 -6 0 -44 -34 -85 -75 l-75 -74
0 -65 c0 -60 2 -66 30 -86 24 -17 30 -29 30 -56 0 -51 73 -124 124 -124 27 0
39 -6 56 -30 20 -28 25 -30 90 -30 65 0 70 2 90 30 17 24 29 30 56 30 29 0 44
9 80 44 l44 44 0 152 0 152 -44 44 c-25 24 -49 44 -55 44 -7 0 -14 14 -17 30
l-6 30 -148 0 -147 0 -6 -30z M27177 4830 c-6 -28 -10 -30 -50 -30 -53 0 -67
-13 -67 -61 0 -30 -6 -42 -30 -59 -30 -21 -30 -22 -30 -116 l0 -95 105 -104
104 -105 95 0 c94 0 95 0 116 30 17 24 29 30 59 30 47 0 61 14 61 61 0 30 6
42 30 59 l30 21 0 125 0 126 -44 44 c-38 38 -50 44 -85 44 -38 0 -42 3 -47 30
l-6 30 -118 0 -117 0 -6 -30z M5580 4470 c-17 -24 -29 -30 -59 -30 -52 0 -61
-14 -61 -91 0 -64 -2 -69 -30 -89 l-30 -21 0 -1659 0 -1659 30 -21 c28 -20 30
-26 30 -86 0 -64 1 -67 44 -110 36 -35 51 -44 80 -44 27 0 39 -6 56 -30 l21
-30 249 0 249 0 21 30 c17 24 29 30 56 30 29 0 44 9 80 44 l44 44 0 1802 0
1801 -75 74 -74 75 -305 0 -305 0 -21 -30z M9540 3810 c-21 -30 -22 -30 -120
-30 -98 0 -99 0 -120 -30 -20 -28 -25 -30 -90 -30 -65 0 -70 -2 -90 -30 -17
-23 -29 -30 -56 -30 -31 0 -47 -12 -139 -105 -121 -120 -134 -153 -75 -195 23
-17 30 -29 30 -56 0 -30 10 -45 75 -109 102 -103 110 -103 225 15 78 80 92 90
123 90 28 0 40 6 57 30 21 30 22 30 120 30 98 0 99 0 120 30 l21 30 129 0 129
0 21 -30 c20 -28 26 -30 86 -30 l65 0 104 -105 105 -104 0 -124 c0 -82 -4
-127 -12 -135 -9 -9 -100 -12 -349 -12 l-338 0 -21 -30 c-21 -30 -22 -30 -120
-30 -98 0 -99 0 -120 -30 -20 -28 -25 -30 -87 -30 l-66 0 -57 -60 c-46 -49
-63 -60 -89 -60 -49 0 -241 -194 -241 -244 0 -27 -7 -39 -30 -56 l-30 -21 0
-249 0 -249 30 -21 c23 -17 30 -29 30 -56 0 -52 252 -304 304 -304 27 0 39 -7
56 -30 17 -24 28 -30 60 -30 32 0 43 -6 60 -30 l21 -30 279 0 279 0 21 30 c20
28 25 30 90 30 65 0 70 2 90 30 17 24 29 30 56 30 31 0 45 10 104 69 38 39 74
79 80 90 12 23 45 28 57 9 4 -7 6 -55 4 -106 -2 -62 1 -98 9 -107 16 -20 439
-22 458 -3 7 7 12 40 12 79 0 64 -2 69 -30 89 l-30 21 0 819 0 819 -30 21
c-24 17 -30 28 -30 60 0 32 -6 43 -30 60 -23 17 -30 29 -30 56 0 52 -252 304
-304 304 -27 0 -39 7 -56 30 -21 30 -22 30 -120 30 -98 0 -99 0 -120 30 l-21
30 -219 0 -219 0 -21 -30z m676 -1334 l44 -44 0 -156 0 -155 -30 -21 c-23 -17
-30 -29 -30 -56 0 -52 -192 -244 -244 -244 -27 0 -39 -7 -56 -30 l-21 -30
-219 0 -219 0 -21 30 c-17 23 -29 30 -56 30 -30 0 -45 10 -109 75 l-75 74 0
121 0 121 105 104 104 105 65 0 c60 0 66 2 86 30 l21 30 249 0 249 0 21 30
c33 47 79 42 136 -14z M12360 3810 c-21 -30 -22 -30 -120 -30 -98 0 -99 0
-120 -30 -17 -24 -28 -30 -60 -30 -32 0 -43 -6 -60 -30 -17 -24 -28 -30 -60
-30 -32 0 -43 -6 -60 -30 -17 -23 -29 -30 -56 -30 -52 0 -304 -252 -304 -304
0 -27 -7 -39 -30 -56 -24 -17 -30 -28 -30 -60 0 -32 -6 -43 -30 -60 -24 -17
-30 -28 -30 -60 0 -32 -6 -43 -30 -60 l-30 -21 0 -129 0 -129 -30 -21 -30 -21
0 -129 0 -129 30 -21 c30 -21 30 -22 30 -120 0 -98 0 -99 30 -120 28 -20 30
-25 30 -87 l0 -66 60 -57 c49 -46 60 -63 60 -89 0 -50 314 -361 364 -361 27 0
39 -7 56 -30 17 -24 28 -30 60 -30 32 0 43 -6 60 -30 20 -28 25 -30 90 -30 65
0 70 -2 90 -30 l21 -30 309 0 309 0 21 30 c20 28 25 30 90 30 65 0 70 2 90 30
17 24 28 30 60 30 32 0 43 6 60 30 17 24 29 30 57 30 36 0 95 48 123 99 11 22
44 28 55 11 3 -5 6 -370 5 -810 l0 -800 240 0 240 0 0 1846 0 1846 -44 44 -44
44 -184 0 c-130 0 -188 -4 -196 -12 -8 -8 -12 -47 -12 -108 0 -108 -6 -120
-59 -120 -29 0 -43 9 -91 60 -49 52 -62 60 -93 60 -28 0 -40 6 -57 30 -17 24
-28 30 -60 30 -32 0 -43 6 -60 30 -21 30 -22 30 -120 30 -98 0 -99 0 -120 30
l-21 30 -189 0 -189 0 -21 -30z m360 -420 c21 -30 22 -30 120 -30 98 0 99 0
120 -30 17 -23 29 -30 56 -30 52 0 304 -252 304 -304 0 -27 7 -39 30 -56 24
-17 30 -28 30 -60 0 -32 6 -43 30 -60 l30 -21 0 -219 0 -219 -30 -21 c-28 -20
-30 -25 -30 -87 l0 -66 -60 -57 c-49 -47 -60 -63 -60 -89 0 -46 -75 -121 -121
-121 -26 0 -42 -11 -89 -60 l-57 -60 -66 0 c-62 0 -67 -2 -87 -30 l-21 -30
-219 0 -219 0 -21 30 c-20 28 -26 30 -86 30 l-64 0 -165 165 c-150 149 -165
168 -165 199 0 27 -7 39 -30 56 l-30 21 0 309 0 309 30 21 c24 17 30 28 30 60
0 32 6 43 30 60 23 17 30 29 30 56 0 52 192 244 244 244 27 0 39 7 56 30 21
30 22 30 120 30 98 0 99 0 120 30 21 30 22 30 120 30 98 0 99 0 120 -30z
M18180 3810 l-21 -30 -129 0 -129 0 -21 -30 c-20 -28 -25 -30 -90 -30 -65 0
-70 -2 -90 -30 -17 -23 -29 -30 -56 -30 -31 0 -47 -12 -139 -105 -140 -139
-140 -132 9 -279 62 -62 119 -122 125 -134 15 -28 47 -28 61 -1 28 51 87 99
123 99 28 0 40 6 57 30 17 24 28 30 60 30 32 0 43 6 60 30 21 30 22 30 120 30
98 0 99 0 120 30 21 30 22 30 120 30 98 0 99 0 120 -30 20 -28 25 -30 90 -30
65 0 70 -2 90 -30 17 -24 29 -30 59 -30 47 0 61 -14 61 -61 0 -30 6 -42 30
-59 28 -20 30 -25 30 -90 0 -65 2 -70 30 -90 24 -17 30 -29 30 -59 0 -63 12
-61 -391 -61 l-368 0 -21 -30 c-21 -30 -22 -30 -120 -30 -98 0 -99 0 -120 -30
-17 -24 -28 -30 -60 -30 -32 0 -43 -6 -60 -30 -17 -24 -28 -30 -60 -30 -32 0
-43 -6 -60 -30 -17 -23 -29 -30 -56 -30 -52 0 -184 -132 -184 -184 0 -27 -7
-39 -30 -56 -24 -17 -30 -28 -30 -60 0 -32 -6 -43 -30 -60 l-30 -21 0 -189 0
-189 30 -21 c28 -20 30 -26 30 -86 l0 -65 135 -134 c121 -121 138 -135 169
-135 27 0 39 -7 56 -30 17 -24 28 -30 60 -30 32 0 43 -6 60 -30 l21 -30 309 0
309 0 21 30 c17 24 28 30 60 30 32 0 43 6 60 30 17 24 29 30 56 30 31 0 45 10
104 69 38 39 74 79 80 90 13 25 45 27 58 4 6 -9 7 -43 5 -74 -6 -58 -6 -58 40
-103 l45 -46 184 0 c130 0 188 4 196 12 8 8 12 54 12 139 l0 128 -30 21 -30
21 0 759 0 759 -30 21 c-28 20 -30 26 -30 86 l0 64 -165 165 c-149 150 -168
165 -199 165 -27 0 -39 7 -56 30 -21 30 -22 30 -120 30 -98 0 -99 0 -120 30
l-21 30 -189 0 -189 0 -21 -30z m708 -1362 c7 -7 12 -40 12 -79 0 -64 -2 -69
-30 -89 -30 -21 -30 -22 -30 -116 l0 -95 -135 -134 c-121 -121 -138 -135 -169
-135 -27 0 -39 -7 -56 -30 l-21 -30 -219 0 -219 0 -21 30 c-17 24 -29 30 -56
30 -51 0 -124 73 -124 124 0 27 -6 39 -30 56 -30 21 -30 22 -30 116 l0 95 75
74 c64 65 79 75 109 75 27 0 39 7 56 30 17 24 28 30 60 30 32 0 43 6 60 30
l21 30 368 0 c272 0 370 -3 379 -12z M22320 3810 c-20 -28 -25 -30 -90 -30
-65 0 -70 -2 -90 -30 -17 -24 -28 -30 -60 -30 -32 0 -43 -6 -60 -30 -17 -24
-29 -30 -57 -30 -36 0 -95 -48 -123 -99 -12 -23 -44 -28 -57 -8 -4 6 -6 54 -4
105 2 62 -1 98 -9 107 -16 20 -439 22 -458 3 -17 -17 -17 -2359 0 -2376 17
-17 439 -17 456 0 9 9 12 180 12 709 l0 698 30 21 c28 20 30 25 30 90 0 65 2
70 30 90 23 17 30 29 30 56 0 31 14 48 135 169 l134 135 95 0 c94 0 95 0 116
30 20 28 25 30 90 30 65 0 70 -2 90 -30 20 -28 26 -30 86 -30 l65 0 104 -105
105 -104 0 -65 c0 -60 2 -66 30 -86 l30 -21 0 -788 c0 -599 3 -790 12 -799 17
-17 439 -17 456 0 9 9 12 207 12 829 l0 818 -30 21 c-30 21 -30 22 -30 120 0
98 0 99 -30 120 -24 17 -30 28 -30 60 0 32 -6 43 -30 60 -23 17 -30 29 -30 56
0 52 -132 184 -184 184 -27 0 -39 7 -56 30 -17 24 -28 30 -60 30 -32 0 -43 6
-60 30 -20 28 -25 30 -90 30 -65 0 -70 2 -90 30 l-21 30 -189 0 -189 0 -21
-30z M25200 3810 c-21 -30 -22 -30 -120 -30 -98 0 -99 0 -120 -30 -17 -24 -29
-30 -57 -30 -31 0 -44 -8 -93 -60 -49 -52 -62 -60 -93 -60 -30 0 -39 -5 -52
-30 -16 -31 -48 -40 -62 -17 -4 6 -6 54 -4 105 4 129 15 122 -206 122 l-185 0
-44 -44 c-56 -57 -61 -103 -14 -136 l30 -21 0 -1088 c0 -832 3 -1090 12 -1099
17 -17 379 -17 396 0 9 9 12 160 12 619 l0 608 30 21 30 21 0 159 0 159 30 21
c23 17 30 29 30 56 0 31 14 48 135 169 l134 135 95 0 c94 0 95 0 116 30 20 28
25 30 90 30 65 0 70 -2 90 -30 20 -28 25 -30 90 -30 65 0 70 -2 90 -30 17 -24
29 -30 56 -30 29 0 44 -9 80 -44 43 -43 44 -46 44 -110 0 -60 2 -66 30 -86
l30 -21 0 -818 c0 -622 3 -820 12 -829 17 -17 439 -17 456 0 9 9 12 220 12
889 l0 878 -30 21 c-28 20 -30 25 -30 90 0 65 -2 70 -30 90 -23 17 -30 29 -30
56 0 52 -252 304 -304 304 -27 0 -39 7 -56 30 -21 30 -22 30 -120 30 -98 0
-99 0 -120 30 l-21 30 -159 0 -159 0 -21 -30z M28920 3810 c-21 -30 -22 -30
-120 -30 -98 0 -99 0 -120 -30 -17 -24 -28 -30 -60 -30 -32 0 -43 -6 -60 -30
-17 -23 -29 -30 -56 -30 -52 0 -244 -192 -244 -244 0 -27 -7 -39 -30 -56 l-30
-21 0 -249 0 -249 30 -21 c23 -17 30 -29 30 -56 0 -52 132 -184 184 -184 27 0
39 -7 56 -30 17 -24 28 -30 60 -30 32 0 43 -6 60 -30 17 -24 28 -30 60 -30 32
0 43 -6 60 -30 l21 -30 129 0 129 0 21 -30 c20 -28 25 -30 90 -30 65 0 70 -2
90 -30 20 -28 26 -30 86 -30 l65 0 74 -75 75 -74 0 -91 0 -91 -75 -74 c-64
-65 -79 -75 -109 -75 -27 0 -39 -7 -56 -30 l-21 -30 -189 0 -189 0 -21 30
c-20 28 -26 30 -86 30 l-66 0 -93 95 c-52 52 -99 95 -105 95 -7 0 -10 17 -9
43 4 72 -36 95 -66 37 -13 -25 -22 -30 -52 -30 -31 0 -44 -8 -93 -60 -49 -52
-62 -60 -93 -60 -27 0 -40 -6 -52 -23 -8 -13 -26 -29 -40 -35 -35 -16 -32 -48
5 -67 25 -13 30 -22 30 -51 0 -52 191 -244 244 -244 27 0 39 -7 56 -30 17 -24
28 -30 60 -30 32 0 43 -6 60 -30 20 -28 25 -30 90 -30 65 0 70 -2 90 -30 l21
-30 309 0 309 0 21 30 c20 28 25 30 90 30 65 0 70 2 90 30 17 23 29 30 56 30
31 0 48 14 169 135 l135 135 -2 65 c-3 68 5 85 45 85 16 0 17 17 17 209 l0
209 -30 6 c-28 5 -30 9 -30 50 0 38 -4 48 -30 66 -23 17 -30 29 -30 56 0 52
-132 184 -184 184 -27 0 -39 7 -56 30 -17 24 -28 30 -60 30 -32 0 -43 6 -60
30 -21 30 -22 30 -120 30 -98 0 -99 0 -120 30 -21 30 -22 30 -120 30 -98 0
-99 0 -120 30 -21 30 -22 30 -116 30 l-95 0 -74 75 -75 74 0 91 0 91 75 74 74
75 65 0 c60 0 66 2 86 30 20 28 25 30 90 30 65 0 70 -2 90 -30 20 -28 26 -30
87 -30 l65 0 118 -120 118 -120 63 0 62 0 57 60 c47 49 63 60 89 60 45 0 121
75 121 119 0 50 -314 361 -364 361 -27 0 -39 7 -56 30 -21 30 -22 30 -120 30
-98 0 -99 0 -120 30 l-21 30 -159 0 -159 0 -21 -30z M14592 3768 c-9 -9 -12
-227 -12 -919 l0 -908 30 -21 c28 -20 30 -25 30 -90 0 -65 2 -70 30 -90 23
-17 30 -29 30 -56 0 -52 192 -244 244 -244 27 0 39 -7 56 -30 20 -28 25 -30
90 -30 65 0 70 -2 90 -30 l21 -30 279 0 279 0 21 30 c17 24 28 30 60 30 32 0
43 6 60 30 17 24 28 30 60 30 32 0 43 6 60 30 17 25 28 30 60 30 34 0 42 4 55
30 34 66 77 27 68 -63 -9 -89 -15 -87 236 -87 155 0 220 3 229 12 17 17 17
2359 0 2376 -17 17 -439 17 -456 0 -9 -9 -12 -194 -12 -769 l0 -758 -30 -21
c-28 -20 -30 -26 -30 -86 l0 -65 -135 -134 c-121 -121 -138 -135 -169 -135
-27 0 -39 -7 -56 -30 l-21 -30 -189 0 -189 0 -21 30 c-17 23 -29 30 -56 30
-31 0 -47 12 -139 105 l-105 104 0 305 0 305 -30 21 -30 21 0 548 c0 412 -3
550 -12 559 -17 17 -379 17 -396 0z M20143 3735 l-43 -44 0 -1143 c0 -877 3
-1147 12 -1156 17 -17 439 -17 456 0 17 17 17 2359 0 2376 -9 9 -66 12 -197
11 l-186 0 -42 -44z M27072 3768 c-17 -17 -17 -2359 0 -2376 17 -17 439 -17
456 0 17 17 17 2359 0 2376 -17 17 -439 17 -456 0z"/></g></svg>
